<svg width="174" height="26" viewBox="0 0 174 26" fill="none" xmlns="http://www.w3.org/2000/svg">
<rect x="51" y="18" width="51" height="8" fill="#79BCF6" fill-opacity="0.7"/>
<path d="M17.448 6.344V1.304C17.448 1.16 17.4 1.064 17.208 1.064H15.816C15.672 1.064 15.576 1.16 15.576 1.304V15.008C15.576 15.128 15.672 15.224 15.816 15.224H17.208C17.4 15.224 17.448 15.128 17.448 15.008V8.072H20.832C20.976 8.072 21.072 7.976 21.072 7.808V6.584C21.072 6.44 20.976 6.344 20.832 6.344H17.448ZM7.248 7.688C8.064 9.272 9.912 11.024 12.216 12.368C12.36 12.464 12.504 12.464 12.6 12.32L13.296 11.24C13.392 11.072 13.392 10.976 13.224 10.88C10.32 9.224 8.136 7.04 8.136 4.208V2.336C8.136 2.192 8.064 2.096 7.896 2.096H6.504C6.336 2.096 6.264 2.192 6.264 2.336V4.208C6.264 7.208 4.08 9.704 0.936 11.576C0.792 11.648 0.792 11.816 0.888 11.936L1.656 12.968C1.752 13.112 1.896 13.088 2.016 13.016C4.728 11.384 6.408 9.56 7.248 7.688ZM18.24 20.312C14.568 19.256 11.784 17.408 11.784 14.84V13.76C11.784 13.616 11.688 13.52 11.544 13.52H10.128C9.96 13.52 9.912 13.616 9.912 13.76V14.84C9.912 17.456 7.32 19.304 3.384 20.336C3.216 20.384 3.168 20.528 3.24 20.672L3.672 21.824C3.744 21.968 3.864 22.016 4.008 21.992C7.632 20.936 10.08 19.256 10.872 17.552C11.664 19.16 14.16 20.936 17.64 21.992C17.808 22.016 17.928 21.968 17.976 21.8L18.408 20.648C18.456 20.504 18.408 20.36 18.24 20.312ZM39.0195 1.064C38.8515 1.064 38.7795 1.16 38.7795 1.304V21.632C38.7795 21.8 38.8515 21.896 39.0195 21.896H40.4115C40.5795 21.896 40.6755 21.8 40.6755 21.632V1.304C40.6755 1.16 40.5795 1.064 40.4115 1.064H39.0195ZM35.9715 16.112C33.1875 13.688 30.6915 10.64 30.6195 6.896H35.1795C35.3475 6.896 35.4435 6.8 35.4435 6.656V5.408C35.4435 5.288 35.3475 5.192 35.1795 5.192H30.6195V1.976C30.6195 1.832 30.5475 1.736 30.3795 1.736H29.0115C28.8195 1.736 28.7475 1.832 28.7475 1.976V5.192H24.0435C23.8515 5.192 23.7795 5.288 23.7795 5.408V6.656C23.7795 6.8 23.8515 6.896 24.0435 6.896H28.7475C28.6995 10.736 26.6595 13.832 23.4195 16.376C23.2755 16.472 23.2755 16.64 23.3955 16.76L24.2115 17.744C24.3315 17.864 24.4755 17.84 24.6195 17.744C27.4035 15.56 28.9875 13.136 29.7555 11.072C30.4515 12.92 32.3235 15.344 34.7475 17.456C34.8915 17.576 35.0115 17.552 35.1315 17.432L35.9955 16.472C36.1155 16.352 36.1155 16.232 35.9715 16.112ZM68.4548 5.048V1.232C68.4548 1.04 68.3588 0.92 68.1188 0.92H65.6708C65.4788 0.92 65.3828 1.04 65.3828 1.232V10.952C65.3828 11.12 65.4788 11.24 65.6708 11.24H68.1188C68.3588 11.24 68.4548 11.12 68.4548 10.952V7.76H71.5028C71.7428 7.76 71.8388 7.64 71.8388 7.448V5.36C71.8388 5.168 71.7428 5.048 71.5028 5.048H68.4548ZM63.5348 10.088C63.7748 10.016 63.8228 9.92 63.7988 9.728L63.5108 7.904C63.4628 7.664 63.3188 7.592 63.1268 7.616C61.1108 8 58.8068 8.192 56.9828 8.192H55.0868V4.544H62.3588C62.5748 4.544 62.6708 4.424 62.6708 4.232V2.336C62.6708 2.144 62.5748 2.024 62.3588 2.024H52.3988C52.1828 2.024 52.0868 2.144 52.0868 2.336V10.376C52.0868 10.544 52.1828 10.664 52.3988 10.664H56.5028C59.1668 10.664 61.7348 10.472 63.5348 10.088ZM57.6308 19.64V18.368H68.1188C68.3348 18.368 68.4548 18.248 68.4548 18.056V12.608C68.4548 12.416 68.3588 12.296 68.1428 12.296H54.8468C54.6548 12.296 54.5588 12.416 54.5588 12.608V14.408C54.5588 14.6 54.6548 14.72 54.8468 14.72H65.4068V15.968H54.8948C54.6788 15.968 54.6068 16.112 54.6068 16.28V21.8C54.6068 21.992 54.6788 22.088 54.8948 22.088H68.9348C69.1268 22.088 69.2468 21.992 69.2468 21.8V19.952C69.2468 19.736 69.1268 19.64 68.9348 19.64H57.6308ZM88.5622 7.088V12.512C88.5622 12.704 88.6582 12.8 88.8742 12.8H91.2982C91.5382 12.8 91.6342 12.704 91.6342 12.512V1.232C91.6342 1.04 91.5382 0.92 91.2982 0.92H88.8742C88.6582 0.92 88.5622 1.04 88.5622 1.232V4.472H84.8902C84.6742 4.472 84.5782 4.592 84.5782 4.784V6.776C84.5782 6.992 84.6742 7.088 84.8902 7.088H88.5622ZM80.0662 8.624C81.0262 10.04 82.6342 11.432 84.4342 12.416C84.6262 12.512 84.8422 12.536 84.9382 12.368L86.1142 10.496C86.2342 10.328 86.2822 10.136 86.0902 10.04C83.1142 8.48 81.5782 6.44 81.5782 4.304V2.336C81.5782 2.144 81.4822 2.024 81.2902 2.024H78.8422C78.6262 2.024 78.5542 2.144 78.5542 2.336V4.304C78.5542 6.488 76.5382 8.936 73.6822 10.472C73.4902 10.544 73.5382 10.784 73.6582 10.952L74.9302 12.776C75.0502 12.92 75.2422 12.872 75.4342 12.8C77.3542 11.768 79.0822 10.16 80.0662 8.624ZM84.5062 13.376C79.4662 13.376 77.1622 15.224 77.1622 17.816C77.1622 20.384 79.4662 22.256 84.5062 22.256C89.5462 22.256 91.8502 20.384 91.8502 17.816C91.8502 15.224 89.5462 13.376 84.5062 13.376ZM84.5062 19.688C81.5062 19.688 80.2102 18.896 80.2102 17.816C80.2102 16.736 81.5062 15.968 84.5062 15.968C87.5062 15.968 88.8262 16.736 88.8262 17.816C88.8262 18.896 87.5062 19.688 84.5062 19.688ZM98.9738 15.104C99.1658 15.104 99.2858 15.008 99.2858 14.792L99.5258 2.312C99.5258 2.12 99.4058 2 99.2138 2H96.7178C96.5258 2 96.4058 2.12 96.4058 2.312L96.6458 14.792C96.6458 15.008 96.7658 15.104 96.9578 15.104H98.9738ZM98.0138 20.696C99.1178 20.696 99.9578 19.904 99.9578 18.8C99.9578 17.696 99.1178 16.904 98.0138 16.904C96.9098 16.904 96.0698 17.696 96.0698 18.8C96.0698 19.904 96.9098 20.696 98.0138 20.696ZM126.656 21.896C126.824 21.896 126.92 21.8 126.92 21.632V1.304C126.92 1.16 126.824 1.064 126.656 1.064H125.264C125.096 1.064 125.024 1.16 125.024 1.304V21.632C125.024 21.8 125.096 21.896 125.264 21.896H126.656ZM114.752 16.976C117.56 16.976 120.032 16.712 122.312 16.256C122.48 16.208 122.528 16.136 122.504 15.992L122.336 14.888C122.288 14.696 122.192 14.624 122.024 14.672C119.816 15.128 117.176 15.344 115.088 15.344H112.376V10.736H120.44C120.608 10.736 120.68 10.64 120.68 10.496V3.248C120.68 3.104 120.632 3.008 120.464 3.008H110.696C110.528 3.008 110.432 3.104 110.432 3.248V4.376C110.432 4.544 110.528 4.64 110.696 4.64H118.832V9.176H110.744C110.576 9.176 110.48 9.296 110.48 9.416V16.736C110.48 16.88 110.576 16.976 110.744 16.976H114.752ZM133.251 13.16C133.299 13.304 133.419 13.352 133.587 13.304C137.235 12.08 140.043 9.944 141.147 7.736C142.227 9.896 145.203 12.2 148.659 13.304C148.803 13.352 148.923 13.304 148.971 13.136L149.499 12.008C149.571 11.864 149.523 11.744 149.355 11.696C145.467 10.4 142.083 7.568 142.083 4.616V2.744C142.083 2.6 142.011 2.504 141.843 2.504H140.427C140.259 2.504 140.187 2.6 140.187 2.744V4.616C140.187 7.592 136.971 10.28 132.867 11.72C132.723 11.768 132.675 11.888 132.723 12.032L133.251 13.16ZM131.427 17.912C131.283 17.912 131.187 17.984 131.187 18.152V19.376C131.187 19.544 131.283 19.64 131.427 19.64H150.867C151.011 19.64 151.083 19.544 151.083 19.376V18.152C151.083 17.984 151.011 17.912 150.867 17.912H131.427ZM170.231 14C170.399 14 170.495 13.928 170.495 13.784V12.632C170.495 12.464 170.399 12.368 170.231 12.368H158.279V9.128H169.631C169.799 9.128 169.895 9.032 169.895 8.888V7.784C169.895 7.616 169.799 7.544 169.631 7.544H158.279V4.424H169.775C169.943 4.424 170.015 4.328 170.015 4.16V3.008C170.015 2.864 169.943 2.768 169.775 2.768H156.647C156.479 2.768 156.383 2.864 156.383 3.008V13.784C156.383 13.928 156.479 14 156.647 14H170.231ZM153.575 17.984C153.431 17.984 153.335 18.08 153.335 18.248V19.472C153.335 19.64 153.431 19.712 153.575 19.712H173.015C173.159 19.712 173.231 19.64 173.231 19.472V18.248C173.231 18.08 173.159 17.984 173.015 17.984H153.575Z" fill="black"/>
</svg>


