<svg width="167" height="23" viewBox="0 0 167 23" fill="none" xmlns="http://www.w3.org/2000/svg">
<path d="M17.448 6.344V1.304C17.448 1.16 17.4 1.064 17.208 1.064H15.816C15.672 1.064 15.576 1.16 15.576 1.304V15.008C15.576 15.128 15.672 15.224 15.816 15.224H17.208C17.4 15.224 17.448 15.128 17.448 15.008V8.072H20.832C20.976 8.072 21.072 7.976 21.072 7.808V6.584C21.072 6.44 20.976 6.344 20.832 6.344H17.448ZM7.248 7.688C8.064 9.272 9.912 11.024 12.216 12.368C12.36 12.464 12.504 12.464 12.6 12.32L13.296 11.24C13.392 11.072 13.392 10.976 13.224 10.88C10.32 9.224 8.136 7.04 8.136 4.208V2.336C8.136 2.192 8.064 2.096 7.896 2.096H6.504C6.336 2.096 6.264 2.192 6.264 2.336V4.208C6.264 7.208 4.08 9.704 0.936 11.576C0.792 11.648 0.792 11.816 0.888 11.936L1.656 12.968C1.752 13.112 1.896 13.088 2.016 13.016C4.728 11.384 6.408 9.56 7.248 7.688ZM18.24 20.312C14.568 19.256 11.784 17.408 11.784 14.84V13.76C11.784 13.616 11.688 13.52 11.544 13.52H10.128C9.96 13.52 9.912 13.616 9.912 13.76V14.84C9.912 17.456 7.32 19.304 3.384 20.336C3.216 20.384 3.168 20.528 3.24 20.672L3.672 21.824C3.744 21.968 3.864 22.016 4.008 21.992C7.632 20.936 10.08 19.256 10.872 17.552C11.664 19.16 14.16 20.936 17.64 21.992C17.808 22.016 17.928 21.968 17.976 21.8L18.408 20.648C18.456 20.504 18.408 20.36 18.24 20.312ZM39.0195 1.064C38.8515 1.064 38.7795 1.16 38.7795 1.304V21.632C38.7795 21.8 38.8515 21.896 39.0195 21.896H40.4115C40.5795 21.896 40.6755 21.8 40.6755 21.632V1.304C40.6755 1.16 40.5795 1.064 40.4115 1.064H39.0195ZM35.9715 16.112C33.1875 13.688 30.6915 10.64 30.6195 6.896H35.1795C35.3475 6.896 35.4435 6.8 35.4435 6.656V5.408C35.4435 5.288 35.3475 5.192 35.1795 5.192H30.6195V1.976C30.6195 1.832 30.5475 1.736 30.3795 1.736H29.0115C28.8195 1.736 28.7475 1.832 28.7475 1.976V5.192H24.0435C23.8515 5.192 23.7795 5.288 23.7795 5.408V6.656C23.7795 6.8 23.8515 6.896 24.0435 6.896H28.7475C28.6995 10.736 26.6595 13.832 23.4195 16.376C23.2755 16.472 23.2755 16.64 23.3955 16.76L24.2115 17.744C24.3315 17.864 24.4755 17.84 24.6195 17.744C27.4035 15.56 28.9875 13.136 29.7555 11.072C30.4515 12.92 32.3235 15.344 34.7475 17.456C34.8915 17.576 35.0115 17.552 35.1315 17.432L35.9955 16.472C36.1155 16.352 36.1155 16.232 35.9715 16.112ZM68.4548 5.048V1.232C68.4548 1.04 68.3588 0.92 68.1188 0.92H65.6708C65.4788 0.92 65.3828 1.04 65.3828 1.232V10.952C65.3828 11.12 65.4788 11.24 65.6708 11.24H68.1188C68.3588 11.24 68.4548 11.12 68.4548 10.952V7.76H71.5028C71.7428 7.76 71.8388 7.64 71.8388 7.448V5.36C71.8388 5.168 71.7428 5.048 71.5028 5.048H68.4548ZM63.5348 10.088C63.7748 10.016 63.8228 9.92 63.7988 9.728L63.5108 7.904C63.4628 7.664 63.3188 7.592 63.1268 7.616C61.1108 8 58.8068 8.192 56.9828 8.192H55.0868V4.544H62.3588C62.5748 4.544 62.6708 4.424 62.6708 4.232V2.336C62.6708 2.144 62.5748 2.024 62.3588 2.024H52.3988C52.1828 2.024 52.0868 2.144 52.0868 2.336V10.376C52.0868 10.544 52.1828 10.664 52.3988 10.664H56.5028C59.1668 10.664 61.7348 10.472 63.5348 10.088ZM57.6308 19.64V18.368H68.1188C68.3348 18.368 68.4548 18.248 68.4548 18.056V12.608C68.4548 12.416 68.3588 12.296 68.1428 12.296H54.8468C54.6548 12.296 54.5588 12.416 54.5588 12.608V14.408C54.5588 14.6 54.6548 14.72 54.8468 14.72H65.4068V15.968H54.8948C54.6788 15.968 54.6068 16.112 54.6068 16.28V21.8C54.6068 21.992 54.6788 22.088 54.8948 22.088H68.9348C69.1268 22.088 69.2468 21.992 69.2468 21.8V19.952C69.2468 19.736 69.1268 19.64 68.9348 19.64H57.6308ZM88.5622 7.088V12.512C88.5622 12.704 88.6582 12.8 88.8742 12.8H91.2982C91.5382 12.8 91.6342 12.704 91.6342 12.512V1.232C91.6342 1.04 91.5382 0.92 91.2982 0.92H88.8742C88.6582 0.92 88.5622 1.04 88.5622 1.232V4.472H84.8902C84.6742 4.472 84.5782 4.592 84.5782 4.784V6.776C84.5782 6.992 84.6742 7.088 84.8902 7.088H88.5622ZM80.0662 8.624C81.0262 10.04 82.6342 11.432 84.4342 12.416C84.6262 12.512 84.8422 12.536 84.9382 12.368L86.1142 10.496C86.2342 10.328 86.2822 10.136 86.0902 10.04C83.1142 8.48 81.5782 6.44 81.5782 4.304V2.336C81.5782 2.144 81.4822 2.024 81.2902 2.024H78.8422C78.6262 2.024 78.5542 2.144 78.5542 2.336V4.304C78.5542 6.488 76.5382 8.936 73.6822 10.472C73.4902 10.544 73.5382 10.784 73.6582 10.952L74.9302 12.776C75.0502 12.92 75.2422 12.872 75.4342 12.8C77.3542 11.768 79.0822 10.16 80.0662 8.624ZM84.5062 13.376C79.4662 13.376 77.1622 15.224 77.1622 17.816C77.1622 20.384 79.4662 22.256 84.5062 22.256C89.5462 22.256 91.8502 20.384 91.8502 17.816C91.8502 15.224 89.5462 13.376 84.5062 13.376ZM84.5062 19.688C81.5062 19.688 80.2102 18.896 80.2102 17.816C80.2102 16.736 81.5062 15.968 84.5062 15.968C87.5062 15.968 88.8262 16.736 88.8262 17.816C88.8262 18.896 87.5062 19.688 84.5062 19.688ZM119.462 21.896C119.63 21.896 119.726 21.8 119.726 21.632V1.304C119.726 1.16 119.63 1.064 119.462 1.064H118.07C117.902 1.064 117.83 1.16 117.83 1.304V21.632C117.83 21.8 117.902 21.896 118.07 21.896H119.462ZM107.558 16.976C110.366 16.976 112.838 16.712 115.118 16.256C115.286 16.208 115.334 16.136 115.31 15.992L115.142 14.888C115.094 14.696 114.998 14.624 114.83 14.672C112.622 15.128 109.982 15.344 107.894 15.344H105.182V10.736H113.246C113.414 10.736 113.486 10.64 113.486 10.496V3.248C113.486 3.104 113.438 3.008 113.27 3.008H103.502C103.334 3.008 103.238 3.104 103.238 3.248V4.376C103.238 4.544 103.334 4.64 103.502 4.64H111.638V9.176H103.55C103.382 9.176 103.286 9.296 103.286 9.416V16.736C103.286 16.88 103.382 16.976 103.55 16.976H107.558ZM126.057 13.16C126.105 13.304 126.225 13.352 126.393 13.304C130.041 12.08 132.849 9.944 133.953 7.736C135.033 9.896 138.009 12.2 141.465 13.304C141.609 13.352 141.729 13.304 141.777 13.136L142.305 12.008C142.377 11.864 142.329 11.744 142.161 11.696C138.273 10.4 134.889 7.568 134.889 4.616V2.744C134.889 2.6 134.817 2.504 134.649 2.504H133.233C133.065 2.504 132.993 2.6 132.993 2.744V4.616C132.993 7.592 129.777 10.28 125.673 11.72C125.529 11.768 125.481 11.888 125.529 12.032L126.057 13.16ZM124.233 17.912C124.089 17.912 123.993 17.984 123.993 18.152V19.376C123.993 19.544 124.089 19.64 124.233 19.64H143.673C143.817 19.64 143.889 19.544 143.889 19.376V18.152C143.889 17.984 143.817 17.912 143.673 17.912H124.233ZM163.036 14C163.204 14 163.3 13.928 163.3 13.784V12.632C163.3 12.464 163.204 12.368 163.036 12.368H151.084V9.128H162.436C162.604 9.128 162.7 9.032 162.7 8.888V7.784C162.7 7.616 162.604 7.544 162.436 7.544H151.084V4.424H162.58C162.748 4.424 162.82 4.328 162.82 4.16V3.008C162.82 2.864 162.748 2.768 162.58 2.768H149.452C149.284 2.768 149.188 2.864 149.188 3.008V13.784C149.188 13.928 149.284 14 149.452 14H163.036ZM146.38 17.984C146.236 17.984 146.14 18.08 146.14 18.248V19.472C146.14 19.64 146.236 19.712 146.38 19.712H165.82C165.964 19.712 166.036 19.64 166.036 19.472V18.248C166.036 18.08 165.964 17.984 165.82 17.984H146.38Z" fill="black"/>
</svg>

