<svg width="144" height="119" viewBox="0 0 144 119" fill="none" xmlns="http://www.w3.org/2000/svg">
<path d="M22.23 0.329999C22.02 0.329999 21.9 0.449999 21.9 0.629999V10.02H17.82V1.23C17.82 1.02 17.7 0.899999 17.49 0.899999H15.81C15.6 0.899999 15.51 1.02 15.51 1.23V25.23C15.51 25.44 15.6 25.56 15.81 25.56H17.49C17.7 25.56 17.82 25.44 17.82 25.23V12.18H21.9V26.04C21.9 26.25 22.02 26.37 22.23 26.37H23.97C24.15 26.37 24.24 26.25 24.24 26.04V0.629999C24.24 0.449999 24.15 0.329999 23.97 0.329999H22.23ZM13.17 17.46C13.14 17.22 12.99 17.16 12.78 17.19C10.65 17.67 7.65 17.94 5.43 17.94H4.32V3.15C4.32 2.97 4.2 2.85 3.99 2.85H2.31C2.1 2.85 1.98 2.97 1.98 3.15V19.71C1.98 19.95 2.1 20.07 2.37 20.07H5.07C7.83 20.07 10.92 19.77 13.14 19.26C13.32 19.23 13.41 19.14 13.38 18.93L13.17 17.46ZM57.8841 6.18V0.539998C57.8841 0.299999 57.7641 0.149999 57.4641 0.149999H54.4041C54.1641 0.149999 54.0441 0.299999 54.0441 0.539998V17.43C54.0441 17.67 54.1641 17.82 54.4041 17.82H57.4641C57.7641 17.82 57.8841 17.67 57.8841 17.43V9.57H61.6941C61.9941 9.57 62.1141 9.42 62.1141 9.18V6.57C62.1141 6.33 61.9941 6.18 61.6941 6.18H57.8841ZM44.4441 9.81C45.7641 11.61 47.7741 13.35 50.0241 14.7C50.2641 14.85 50.5341 14.85 50.6841 14.64L52.1541 12.3C52.2741 12.09 52.3341 11.85 52.1241 11.73C48.5841 9.81 46.3341 7.08 46.3341 4.35V1.92C46.3341 1.68 46.2141 1.53 45.9441 1.53H42.8841C42.6441 1.53 42.5241 1.68 42.5241 1.92V4.35C42.5241 7.29 39.6141 10.68 36.3141 12.57C36.0741 12.69 36.1341 12.96 36.2841 13.17L37.8741 15.42C38.0241 15.63 38.2941 15.6 38.5041 15.45C41.0541 13.92 43.1541 11.85 44.4441 9.81ZM58.6641 23.43C53.8341 22.23 50.9841 19.95 50.9841 17.64V16.17C50.9841 15.93 50.8641 15.78 50.6241 15.78H47.5341C47.2641 15.78 47.1441 15.93 47.1441 16.17V17.64C47.1441 19.95 44.3241 22.23 39.4941 23.43C39.2541 23.49 39.2241 23.7 39.2841 23.91L40.2741 26.37C40.3641 26.58 40.5441 26.67 40.7541 26.61C45.1041 25.41 48.0141 23.49 49.0941 21.78C50.2641 23.58 53.0541 25.38 57.3741 26.61C57.6141 26.67 57.7941 26.58 57.8841 26.37L58.8441 23.91C58.9341 23.7 58.8741 23.49 58.6641 23.43ZM83.4084 0.149999C83.1384 0.149999 83.0184 0.299999 83.0184 0.539998V26.16C83.0184 26.4 83.1384 26.52 83.4084 26.52H86.4384C86.7384 26.52 86.8584 26.4 86.8584 26.16V0.539998C86.8584 0.299999 86.7384 0.149999 86.4384 0.149999H83.4084ZM80.5884 18.24C77.5284 15.81 74.7684 12.45 74.4684 8.1H79.4784C79.7784 8.1 79.8684 7.95 79.8684 7.74V5.07C79.8684 4.86 79.7784 4.71 79.4784 4.71H74.4384V1.32C74.4384 1.11 74.3184 0.96 74.0784 0.96H71.0484C70.7484 0.96 70.6284 1.11 70.6284 1.32V4.71H65.2884C64.9884 4.71 64.8684 4.86 64.8684 5.07V7.74C64.8684 7.95 64.9884 8.1 65.2884 8.1H70.5984C70.3284 12.57 67.7784 15.93 64.3884 18.66C64.1784 18.81 64.1784 19.11 64.3584 19.29L66.1884 21.39C66.3384 21.54 66.5784 21.54 66.8184 21.39C69.4284 19.35 71.5284 16.83 72.6384 14.61C73.6584 16.65 75.6684 18.9 78.1884 20.94C78.4284 21.12 78.6384 21.12 78.8184 20.94L80.6184 18.84C80.7984 18.66 80.8284 18.42 80.5884 18.24ZM113.733 26.37C113.973 26.37 114.063 26.25 114.063 26.04V0.629999C114.063 0.449999 113.973 0.329999 113.733 0.329999H112.023C111.813 0.329999 111.723 0.449999 111.723 0.629999V26.04C111.723 26.25 111.813 26.37 112.023 26.37H113.733ZM100.563 15.15C104.823 15.15 107.403 12.45 107.403 8.82C107.403 5.19 104.823 2.46 100.563 2.46C96.3628 2.46 93.7828 5.19 93.7828 8.82C93.7828 12.45 96.3628 15.15 100.563 15.15ZM100.563 13.11C97.8628 13.11 96.1228 11.37 96.1228 8.82C96.1228 6.27 97.8628 4.53 100.563 4.53C103.323 4.53 105.033 6.27 105.033 8.82C105.033 11.37 103.323 13.11 100.563 13.11ZM98.0128 21.24C102.303 21.24 106.473 21.06 109.803 20.4C109.983 20.34 110.103 20.25 110.073 20.07L109.893 18.63C109.863 18.45 109.773 18.3 109.563 18.36C106.203 18.99 101.823 19.17 97.4128 19.17H92.6128C92.4328 19.17 92.3128 19.29 92.3128 19.44V20.91C92.3128 21.12 92.4328 21.24 92.6128 21.24H98.0128ZM15.15 58.84V56.68H21.75C22.02 56.68 22.14 56.53 22.14 56.29V47.44C22.14 47.23 22.02 47.08 21.75 47.08H4.68C4.41 47.08 4.32 47.23 4.32 47.44V56.29C4.32 56.53 4.41 56.68 4.68 56.68H11.31V58.84H0.93C0.69 58.84 0.57 59.02 0.57 59.26V61.69C0.57 61.9 0.69 62.05 0.93 62.05H25.53C25.8 62.05 25.92 61.9 25.92 61.69V59.26C25.92 59.02 25.8 58.84 25.53 58.84H15.15ZM18.33 50.23V53.53H8.1V50.23H18.33ZM4.14 63.76C3.87 63.76 3.75 63.88 3.75 64.12V66.58C3.75 66.79 3.87 66.94 4.14 66.94H18.66V72.46C18.66 72.67 18.78 72.82 19.05 72.82H22.11C22.38 72.82 22.47 72.67 22.47 72.46V64.12C22.47 63.88 22.38 63.76 22.11 63.76H4.14ZM47.0644 66.61V61.96H50.3044C50.6044 61.96 50.7244 61.81 50.7244 61.6V58.96C50.7244 58.75 50.6044 58.6 50.3044 58.6H47.3044V51.64H50.1544C50.4544 51.64 50.5744 51.52 50.5744 51.28V48.67C50.5744 48.43 50.4544 48.28 50.1544 48.28H31.6744C31.3744 48.28 31.2844 48.43 31.2844 48.67V51.28C31.2844 51.52 31.3744 51.64 31.6744 51.64H34.4944V58.6H31.5244C31.2544 58.6 31.1344 58.75 31.1344 58.96V61.6C31.1344 61.81 31.2544 61.96 31.5244 61.96H34.7944V66.61H28.6144C28.3744 66.61 28.2544 66.76 28.2544 67V69.64C28.2544 69.85 28.3744 70 28.6144 70H53.2144C53.4844 70 53.6044 69.85 53.6044 69.64V67C53.6044 66.76 53.4844 66.61 53.2144 66.61H47.0644ZM43.5544 51.64V58.6H38.2744V51.64H43.5544ZM43.2244 61.96V66.61H38.6044V61.96H43.2244ZM77.3588 56.59C77.5688 56.59 77.6888 56.47 77.6888 56.29V55.12C77.6888 54.91 77.5688 54.79 77.3588 54.79H62.5688V52.51H76.6388C76.8488 52.51 76.9688 52.39 76.9688 52.21V47.02C76.9688 46.81 76.8788 46.69 76.6688 46.69H60.4388C60.2288 46.69 60.1388 46.81 60.1388 47.02V48.22C60.1388 48.43 60.2288 48.55 60.4388 48.55H74.6288V50.74H60.5588C60.3488 50.74 60.2288 50.86 60.2288 51.04V56.29C60.2288 56.47 60.3488 56.59 60.5588 56.59H77.3588ZM80.7788 60.49C80.9588 60.49 81.0488 60.37 81.0488 60.22V58.9C81.0488 58.75 80.9588 58.63 80.7788 58.63H56.4788C56.2988 58.63 56.1788 58.75 56.1788 58.9V60.22C56.1788 60.37 56.2988 60.49 56.4788 60.49H80.7788ZM77.8388 72.67C78.0188 72.67 78.1388 72.55 78.1388 72.37V71.14C78.1388 70.96 78.0188 70.84 77.8388 70.84H62.3288V68.53H76.9388C77.1488 68.53 77.2388 68.38 77.2388 68.2V63.01C77.2388 62.83 77.1488 62.71 76.9388 62.71H60.2288C60.0188 62.71 59.9288 62.83 59.9288 63.01V64.18C59.9288 64.39 60.0188 64.51 60.2288 64.51H74.9288V66.73H60.2888C60.0788 66.73 59.9888 66.85 59.9888 67.03V72.37C59.9888 72.55 60.0788 72.67 60.2888 72.67H77.8388ZM15.39 98.81C15.21 98.81 15.09 98.93 15.09 99.11V100.55C15.09 100.76 15.21 100.88 15.39 100.88H20.76V107C20.76 107.15 20.88 107.27 21.09 107.27H22.8C23.04 107.27 23.13 107.15 23.13 107V92.63C23.13 92.45 23.04 92.33 22.8 92.33H21.09C20.88 92.33 20.76 92.45 20.76 92.63V98.81H15.39ZM9.33 101.33C10.44 103.31 12.72 105.02 15.63 106.28C15.84 106.37 16.05 106.37 16.11 106.22L16.8 104.84C16.92 104.66 16.89 104.48 16.71 104.39C12.93 102.71 10.44 100.91 10.44 97.43V95.93H15.81C16.05 95.93 16.11 95.81 16.11 95.6V94.16C16.11 93.98 16.05 93.86 15.81 93.86H2.61C2.37 93.86 2.31 93.98 2.31 94.16V95.6C2.31 95.81 2.37 95.93 2.61 95.93H8.1V97.43C8.1 101.03 5.76 103.22 1.65 105.08C1.47 105.17 1.44 105.35 1.56 105.56L2.34 106.85C2.4 107 2.61 107.03 2.82 106.97C6.24 105.41 8.25 103.58 9.33 101.33ZM14.7 108.14C9.3 108.14 5.97 110.06 5.97 113.39C5.97 116.69 9.3 118.61 14.7 118.61C20.1 118.61 23.4 116.69 23.4 113.39C23.4 110.06 20.1 108.14 14.7 108.14ZM14.7 116.57C10.8 116.57 8.34 115.49 8.34 113.39C8.34 111.29 10.8 110.18 14.7 110.18C18.63 110.18 21.09 111.29 21.09 113.39C21.09 115.49 18.63 116.57 14.7 116.57ZM49.9144 92.33C49.7044 92.33 49.5844 92.45 49.5844 92.63V103.04H45.8644V93.23C45.8644 93.02 45.7744 92.9 45.5644 92.9H43.8544C43.6744 92.9 43.5544 93.02 43.5544 93.23V117.23C43.5544 117.44 43.6744 117.56 43.8544 117.56H45.5644C45.7744 117.56 45.8644 117.44 45.8644 117.23V105.2H49.5844V118.04C49.5844 118.25 49.7044 118.37 49.9144 118.37H51.6544C51.8344 118.37 51.9244 118.25 51.9244 118.04V92.63C51.9244 92.45 51.8344 92.33 51.6544 92.33H49.9144ZM36.1144 97.34V93.47C36.1144 93.29 35.9944 93.17 35.8144 93.17H34.0744C33.8344 93.17 33.7444 93.29 33.7444 93.47V97.34H28.4944C28.2844 97.34 28.1944 97.46 28.1944 97.64V99.08C28.1944 99.26 28.2844 99.38 28.4944 99.38H41.2744C41.4844 99.38 41.5744 99.26 41.5744 99.08V97.64C41.5744 97.46 41.4844 97.34 41.2744 97.34H36.1144ZM34.9744 101.69C31.3444 101.69 29.0344 104.09 29.0344 107.75C29.0344 111.47 31.3444 113.84 34.9744 113.84C38.6044 113.84 40.9144 111.47 40.9144 107.75C40.9144 104.09 38.6044 101.69 34.9744 101.69ZM34.9744 111.89C32.6044 111.89 31.2844 110.15 31.2844 107.75C31.2844 105.38 32.6044 103.64 34.9744 103.64C37.3144 103.64 38.6644 105.38 38.6644 107.75C38.6644 110.15 37.3144 111.89 34.9744 111.89ZM58.6688 104.48C58.7288 104.66 58.8788 104.72 59.0888 104.69C63.8288 103.58 67.3088 101.87 68.6288 99.5C70.0088 101.84 73.6388 103.7 78.1088 104.69C78.2888 104.72 78.4088 104.66 78.4988 104.48L78.9788 103.01C79.0388 102.77 78.9488 102.68 78.7388 102.62C73.9088 101.54 69.7988 99.44 69.7988 96.23V95.54H77.3288C77.5388 95.54 77.6288 95.45 77.6288 95.27V93.74C77.6288 93.53 77.5388 93.41 77.3288 93.41H59.8988C59.6888 93.41 59.5988 93.53 59.5988 93.74V95.27C59.5988 95.45 59.6888 95.54 59.8988 95.54H67.4288V96.23C67.4288 99.47 63.5588 101.42 58.4288 102.65C58.2188 102.68 58.1288 102.8 58.1888 103.04L58.6688 104.48ZM56.4788 107.45C56.2988 107.45 56.1788 107.57 56.1788 107.75V109.28C56.1788 109.49 56.2988 109.61 56.4788 109.61H67.4288V118.04C67.4288 118.25 67.5488 118.37 67.7588 118.37H69.4688C69.6788 118.37 69.7988 118.25 69.7988 118.04V109.61H80.7788C80.9588 109.61 81.0488 109.49 81.0488 109.28V107.75C81.0488 107.57 80.9588 107.45 80.7788 107.45H56.4788ZM105.283 92.33C105.073 92.33 104.953 92.45 104.953 92.63V118.04C104.953 118.25 105.073 118.37 105.283 118.37H107.023C107.203 118.37 107.293 118.25 107.293 118.04V92.63C107.293 92.45 107.203 92.33 107.023 92.33H105.283ZM99.3731 92.9C99.1631 92.9 99.0731 93.02 99.0731 93.23V100.73H94.9331C94.7531 100.73 94.6331 100.85 94.6331 101.06V102.59C94.6331 102.77 94.7531 102.89 94.9331 102.89H99.0731V117.23C99.0731 117.44 99.1631 117.56 99.3731 117.56H101.083C101.263 117.56 101.353 117.44 101.353 117.23V93.23C101.353 93.02 101.263 92.9 101.083 92.9H99.3731ZM91.3931 98.69V95C91.3931 94.79 91.2731 94.7 91.0931 94.7H89.3831C89.1731 94.7 89.0531 94.79 89.0531 95V98.69C89.0531 103.22 87.5531 107.36 83.8931 110.81C83.7131 110.96 83.7131 111.14 83.8631 111.29L84.9431 112.31C85.0931 112.46 85.2731 112.46 85.4231 112.31C88.3031 109.52 89.6531 106.67 90.2831 104.12C91.0031 106.43 92.5631 109.22 94.9631 111.74C95.1431 111.92 95.3231 111.89 95.4731 111.74L96.5531 110.72C96.7031 110.6 96.7031 110.42 96.5531 110.24C93.3731 107.06 91.3931 103.19 91.3931 98.69ZM129.968 113.39V106.34C131.918 105.23 133.178 103.43 133.178 100.94C133.178 96.35 128.948 94.13 123.968 94.13C118.988 94.13 114.758 96.35 114.758 100.94C114.758 103.43 116.018 105.23 117.998 106.34V113.39H111.848C111.668 113.39 111.548 113.48 111.548 113.69V115.22C111.548 115.43 111.668 115.55 111.848 115.55H136.148C136.328 115.55 136.418 115.43 136.418 115.22V113.69C136.418 113.48 136.328 113.39 136.148 113.39H129.968ZM123.968 96.26C127.778 96.26 130.808 97.79 130.808 100.94C130.808 104.06 127.778 105.59 123.968 105.59C120.158 105.59 117.128 104.09 117.128 100.94C117.128 97.79 120.158 96.26 123.968 96.26ZM120.338 107.27C121.448 107.57 122.678 107.72 123.968 107.72C125.258 107.72 126.488 107.57 127.598 107.27V113.39H120.338V107.27ZM142.532 110.36C142.712 110.36 142.832 110.27 142.832 110.03L143.042 93.8C143.042 93.59 142.922 93.47 142.712 93.47H140.882C140.702 93.47 140.582 93.59 140.582 93.8L140.762 110.03C140.762 110.27 140.882 110.36 141.092 110.36H142.532ZM141.842 116.87C142.832 116.87 143.582 116.15 143.582 115.16C143.582 114.17 142.832 113.45 141.842 113.45C140.852 113.45 140.102 114.17 140.102 115.16C140.102 116.15 140.852 116.87 141.842 116.87Z" fill="black"/>
</svg>
