<svg width="188" height="59" viewBox="0 0 188 59" fill="none" xmlns="http://www.w3.org/2000/svg">
<path d="M17.784 1.064C17.616 1.064 17.52 1.16 17.52 1.304V8.816H14.256V1.784C14.256 1.616 14.16 1.52 13.992 1.52H12.648C12.48 1.52 12.408 1.616 12.408 1.784V20.984C12.408 21.152 12.48 21.248 12.648 21.248H13.992C14.16 21.248 14.256 21.152 14.256 20.984V10.544H17.52V21.632C17.52 21.8 17.616 21.896 17.784 21.896H19.176C19.32 21.896 19.392 21.8 19.392 21.632V1.304C19.392 1.16 19.32 1.064 19.176 1.064H17.784ZM10.536 14.768C10.512 14.576 10.392 14.528 10.224 14.552C8.52 14.936 6.12 15.152 4.344 15.152H3.456V3.32C3.456 3.176 3.36 3.08 3.192 3.08H1.848C1.68 3.08 1.584 3.176 1.584 3.32V16.568C1.584 16.76 1.68 16.856 1.896 16.856H4.056C6.264 16.856 8.736 16.616 10.512 16.208C10.656 16.184 10.728 16.112 10.704 15.944L10.536 14.768ZM46.3073 5.744V1.232C46.3073 1.04 46.2113 0.92 45.9713 0.92H43.5233C43.3313 0.92 43.2353 1.04 43.2353 1.232V14.744C43.2353 14.936 43.3313 15.056 43.5233 15.056H45.9713C46.2113 15.056 46.3073 14.936 46.3073 14.744V8.456H49.3553C49.5953 8.456 49.6913 8.336 49.6913 8.144V6.056C49.6913 5.864 49.5953 5.744 49.3553 5.744H46.3073ZM35.5553 8.648C36.6113 10.088 38.2193 11.48 40.0193 12.56C40.2113 12.68 40.4273 12.68 40.5473 12.512L41.7233 10.64C41.8193 10.472 41.8673 10.28 41.6993 10.184C38.8673 8.648 37.0673 6.464 37.0673 4.28V2.336C37.0673 2.144 36.9713 2.024 36.7553 2.024H34.3073C34.1153 2.024 34.0193 2.144 34.0193 2.336V4.28C34.0193 6.632 31.6913 9.344 29.0513 10.856C28.8593 10.952 28.9073 11.168 29.0273 11.336L30.2993 13.136C30.4193 13.304 30.6353 13.28 30.8033 13.16C32.8433 11.936 34.5233 10.28 35.5553 8.648ZM46.9313 19.544C43.0673 18.584 40.7873 16.76 40.7873 14.912V13.736C40.7873 13.544 40.6913 13.424 40.4993 13.424H38.0273C37.8113 13.424 37.7153 13.544 37.7153 13.736V14.912C37.7153 16.76 35.4593 18.584 31.5953 19.544C31.4033 19.592 31.3793 19.76 31.4273 19.928L32.2193 21.896C32.2913 22.064 32.4353 22.136 32.6033 22.088C36.0833 21.128 38.4113 19.592 39.2753 18.224C40.2113 19.664 42.4433 21.104 45.8993 22.088C46.0913 22.136 46.2353 22.064 46.3073 21.896L47.0753 19.928C47.1473 19.76 47.0993 19.592 46.9313 19.544ZM66.7268 0.92C66.5108 0.92 66.4148 1.04 66.4148 1.232V21.728C66.4148 21.92 66.5108 22.016 66.7268 22.016H69.1508C69.3908 22.016 69.4868 21.92 69.4868 21.728V1.232C69.4868 1.04 69.3908 0.92 69.1508 0.92H66.7268ZM64.4708 15.392C62.0228 13.448 59.8148 10.76 59.5748 7.28H63.5828C63.8228 7.28 63.8948 7.16 63.8948 6.992V4.856C63.8948 4.688 63.8228 4.568 63.5828 4.568H59.5508V1.856C59.5508 1.688 59.4548 1.568 59.2628 1.568H56.8388C56.5988 1.568 56.5028 1.688 56.5028 1.856V4.568H52.2308C51.9908 4.568 51.8948 4.688 51.8948 4.856V6.992C51.8948 7.16 51.9908 7.28 52.2308 7.28H56.4788C56.2628 10.856 54.2228 13.544 51.5108 15.728C51.3428 15.848 51.3428 16.088 51.4868 16.232L52.9508 17.912C53.0708 18.032 53.2628 18.032 53.4548 17.912C55.5428 16.28 57.2228 14.264 58.1108 12.488C58.9268 14.12 60.5348 15.92 62.5508 17.552C62.7428 17.696 62.9108 17.696 63.0548 17.552L64.4948 15.872C64.6388 15.728 64.6628 15.536 64.4708 15.392ZM90.9862 21.896C91.1782 21.896 91.2502 21.8 91.2502 21.632V1.304C91.2502 1.16 91.1782 1.064 90.9862 1.064H89.6182C89.4502 1.064 89.3782 1.16 89.3782 1.304V21.632C89.3782 21.8 89.4502 21.896 89.6182 21.896H90.9862ZM80.4502 12.92C83.8582 12.92 85.9222 10.76 85.9222 7.856C85.9222 4.952 83.8582 2.768 80.4502 2.768C77.0902 2.768 75.0262 4.952 75.0262 7.856C75.0262 10.76 77.0902 12.92 80.4502 12.92ZM80.4502 11.288C78.2902 11.288 76.8982 9.896 76.8982 7.856C76.8982 5.816 78.2902 4.424 80.4502 4.424C82.6582 4.424 84.0262 5.816 84.0262 7.856C84.0262 9.896 82.6582 11.288 80.4502 11.288ZM78.4102 17.792C81.8422 17.792 85.1782 17.648 87.8422 17.12C87.9862 17.072 88.0822 17 88.0582 16.856L87.9142 15.704C87.8902 15.56 87.8182 15.44 87.6502 15.488C84.9622 15.992 81.4582 16.136 77.9302 16.136H74.0902C73.9462 16.136 73.8502 16.232 73.8502 16.352V17.528C73.8502 17.696 73.9462 17.792 74.0902 17.792H78.4102ZM12.12 47.072V45.344H17.4C17.616 45.344 17.712 45.224 17.712 45.032V37.952C17.712 37.784 17.616 37.664 17.4 37.664H3.744C3.528 37.664 3.456 37.784 3.456 37.952V45.032C3.456 45.224 3.528 45.344 3.744 45.344H9.048V47.072H0.744C0.552 47.072 0.456 47.216 0.456 47.408V49.352C0.456 49.52 0.552 49.64 0.744 49.64H20.424C20.64 49.64 20.736 49.52 20.736 49.352V47.408C20.736 47.216 20.64 47.072 20.424 47.072H12.12ZM14.664 40.184V42.824H6.48V40.184H14.664ZM3.312 51.008C3.096 51.008 3 51.104 3 51.296V53.264C3 53.432 3.096 53.552 3.312 53.552H14.928V57.968C14.928 58.136 15.024 58.256 15.24 58.256H17.688C17.904 58.256 17.976 58.136 17.976 57.968V51.296C17.976 51.104 17.904 51.008 17.688 51.008H3.312ZM37.6515 53.288V49.568H40.2435C40.4835 49.568 40.5795 49.448 40.5795 49.28V47.168C40.5795 47 40.4835 46.88 40.2435 46.88H37.8435V41.312H40.1235C40.3635 41.312 40.4595 41.216 40.4595 41.024V38.936C40.4595 38.744 40.3635 38.624 40.1235 38.624H25.3395C25.0995 38.624 25.0275 38.744 25.0275 38.936V41.024C25.0275 41.216 25.0995 41.312 25.3395 41.312H27.5955V46.88H25.2195C25.0035 46.88 24.9075 47 24.9075 47.168V49.28C24.9075 49.448 25.0035 49.568 25.2195 49.568H27.8355V53.288H22.8915C22.6995 53.288 22.6035 53.408 22.6035 53.6V55.712C22.6035 55.88 22.6995 56 22.8915 56H42.5715C42.7875 56 42.8835 55.88 42.8835 55.712V53.6C42.8835 53.408 42.7875 53.288 42.5715 53.288H37.6515ZM34.8435 41.312V46.88H30.6195V41.312H34.8435ZM34.5795 49.568V53.288H30.8835V49.568H34.5795ZM61.887 45.272C62.055 45.272 62.151 45.176 62.151 45.032V44.096C62.151 43.928 62.055 43.832 61.887 43.832H50.055V42.008H61.311C61.479 42.008 61.575 41.912 61.575 41.768V37.616C61.575 37.448 61.503 37.352 61.335 37.352H48.351C48.183 37.352 48.111 37.448 48.111 37.616V38.576C48.111 38.744 48.183 38.84 48.351 38.84H59.703V40.592H48.447C48.279 40.592 48.183 40.688 48.183 40.832V45.032C48.183 45.176 48.279 45.272 48.447 45.272H61.887ZM64.623 48.392C64.767 48.392 64.839 48.296 64.839 48.176V47.12C64.839 47 64.767 46.904 64.623 46.904H45.183C45.039 46.904 44.943 47 44.943 47.12V48.176C44.943 48.296 45.039 48.392 45.183 48.392H64.623ZM62.271 58.136C62.415 58.136 62.511 58.04 62.511 57.896V56.912C62.511 56.768 62.415 56.672 62.271 56.672H49.863V54.824H61.551C61.719 54.824 61.791 54.704 61.791 54.56V50.408C61.791 50.264 61.719 50.168 61.551 50.168H48.183C48.015 50.168 47.943 50.264 47.943 50.408V51.344C47.943 51.512 48.015 51.608 48.183 51.608H59.943V53.384H48.231C48.063 53.384 47.991 53.48 47.991 53.624V57.896C47.991 58.04 48.063 58.136 48.231 58.136H62.271ZM85.0582 42.248C84.9142 42.248 84.8182 42.344 84.8182 42.488V43.64C84.8182 43.808 84.9142 43.904 85.0582 43.904H89.3542V48.8C89.3542 48.92 89.4502 49.016 89.6182 49.016H90.9862C91.1782 49.016 91.2502 48.92 91.2502 48.8V37.304C91.2502 37.16 91.1782 37.064 90.9862 37.064H89.6182C89.4502 37.064 89.3542 37.16 89.3542 37.304V42.248H85.0582ZM80.2102 44.264C81.0982 45.848 82.9222 47.216 85.2502 48.224C85.4182 48.296 85.5862 48.296 85.6342 48.176L86.1862 47.072C86.2822 46.928 86.2582 46.784 86.1142 46.712C83.0902 45.368 81.0982 43.928 81.0982 41.144V39.944H85.3942C85.5862 39.944 85.6342 39.848 85.6342 39.68V38.528C85.6342 38.384 85.5862 38.288 85.3942 38.288H74.8342C74.6422 38.288 74.5942 38.384 74.5942 38.528V39.68C74.5942 39.848 74.6422 39.944 74.8342 39.944H79.2262V41.144C79.2262 44.024 77.3542 45.776 74.0662 47.264C73.9222 47.336 73.8982 47.48 73.9942 47.648L74.6182 48.68C74.6662 48.8 74.8342 48.824 75.0022 48.776C77.7382 47.528 79.3462 46.064 80.2102 44.264ZM84.5062 49.712C80.1862 49.712 77.5222 51.248 77.5222 53.912C77.5222 56.552 80.1862 58.088 84.5062 58.088C88.8262 58.088 91.4662 56.552 91.4662 53.912C91.4662 51.248 88.8262 49.712 84.5062 49.712ZM84.5062 56.456C81.3862 56.456 79.4182 55.592 79.4182 53.912C79.4182 52.232 81.3862 51.344 84.5062 51.344C87.6502 51.344 89.6182 52.232 89.6182 53.912C89.6182 55.592 87.6502 56.456 84.5062 56.456ZM112.678 37.064C112.51 37.064 112.414 37.16 112.414 37.304V45.632H109.438V37.784C109.438 37.616 109.366 37.52 109.198 37.52H107.83C107.686 37.52 107.59 37.616 107.59 37.784V56.984C107.59 57.152 107.686 57.248 107.83 57.248H109.198C109.366 57.248 109.438 57.152 109.438 56.984V47.36H112.414V57.632C112.414 57.8 112.51 57.896 112.678 57.896H114.07C114.214 57.896 114.286 57.8 114.286 57.632V37.304C114.286 37.16 114.214 37.064 114.07 37.064H112.678ZM101.638 41.072V37.976C101.638 37.832 101.542 37.736 101.398 37.736H100.006C99.8138 37.736 99.7418 37.832 99.7418 37.976V41.072H95.5418C95.3738 41.072 95.3018 41.168 95.3018 41.312V42.464C95.3018 42.608 95.3738 42.704 95.5418 42.704H105.766C105.934 42.704 106.006 42.608 106.006 42.464V41.312C106.006 41.168 105.934 41.072 105.766 41.072H101.638ZM100.726 44.552C97.8218 44.552 95.9738 46.472 95.9738 49.4C95.9738 52.376 97.8218 54.272 100.726 54.272C103.63 54.272 105.478 52.376 105.478 49.4C105.478 46.472 103.63 44.552 100.726 44.552ZM100.726 52.712C98.8298 52.712 97.7738 51.32 97.7738 49.4C97.7738 47.504 98.8298 46.112 100.726 46.112C102.598 46.112 103.678 47.504 103.678 49.4C103.678 51.32 102.598 52.712 100.726 52.712ZM119.681 46.784C119.729 46.928 119.849 46.976 120.017 46.952C123.809 46.064 126.593 44.696 127.649 42.8C128.753 44.672 131.657 46.16 135.233 46.952C135.377 46.976 135.473 46.928 135.545 46.784L135.929 45.608C135.977 45.416 135.905 45.344 135.737 45.296C131.873 44.432 128.585 42.752 128.585 40.184V39.632H134.609C134.777 39.632 134.849 39.56 134.849 39.416V38.192C134.849 38.024 134.777 37.928 134.609 37.928H120.665C120.497 37.928 120.425 38.024 120.425 38.192V39.416C120.425 39.56 120.497 39.632 120.665 39.632H126.689V40.184C126.689 42.776 123.593 44.336 119.489 45.32C119.321 45.344 119.249 45.44 119.297 45.632L119.681 46.784ZM117.929 49.16C117.785 49.16 117.689 49.256 117.689 49.4V50.624C117.689 50.792 117.785 50.888 117.929 50.888H126.689V57.632C126.689 57.8 126.785 57.896 126.953 57.896H128.321C128.489 57.896 128.585 57.8 128.585 57.632V50.888H137.369C137.513 50.888 137.585 50.792 137.585 50.624V49.4C137.585 49.256 137.513 49.16 137.369 49.16H117.929ZM156.973 37.064C156.805 37.064 156.709 37.16 156.709 37.304V57.632C156.709 57.8 156.805 57.896 156.973 57.896H158.365C158.509 57.896 158.581 57.8 158.581 57.632V37.304C158.581 37.16 158.509 37.064 158.365 37.064H156.973ZM152.245 37.52C152.077 37.52 152.005 37.616 152.005 37.784V43.784H148.693C148.549 43.784 148.453 43.88 148.453 44.048V45.272C148.453 45.416 148.549 45.512 148.693 45.512H152.005V56.984C152.005 57.152 152.077 57.248 152.245 57.248H153.613C153.757 57.248 153.829 57.152 153.829 56.984V37.784C153.829 37.616 153.757 37.52 153.613 37.52H152.245ZM145.861 42.152V39.2C145.861 39.032 145.765 38.96 145.621 38.96H144.253C144.085 38.96 143.989 39.032 143.989 39.2V42.152C143.989 45.776 142.789 49.088 139.861 51.848C139.717 51.968 139.717 52.112 139.837 52.232L140.701 53.048C140.821 53.168 140.965 53.168 141.085 53.048C143.389 50.816 144.469 48.536 144.973 46.496C145.549 48.344 146.797 50.576 148.717 52.592C148.861 52.736 149.005 52.712 149.125 52.592L149.989 51.776C150.109 51.68 150.109 51.536 149.989 51.392C147.445 48.848 145.861 45.752 145.861 42.152ZM176.72 53.912V48.272C178.28 47.384 179.288 45.944 179.288 43.952C179.288 40.28 175.904 38.504 171.92 38.504C167.936 38.504 164.552 40.28 164.552 43.952C164.552 45.944 165.56 47.384 167.144 48.272V53.912H162.224C162.08 53.912 161.984 53.984 161.984 54.152V55.376C161.984 55.544 162.08 55.64 162.224 55.64H181.664C181.808 55.64 181.88 55.544 181.88 55.376V54.152C181.88 53.984 181.808 53.912 181.664 53.912H176.72ZM171.92 40.208C174.968 40.208 177.392 41.432 177.392 43.952C177.392 46.448 174.968 47.672 171.92 47.672C168.872 47.672 166.448 46.472 166.448 43.952C166.448 41.432 168.872 40.208 171.92 40.208ZM169.016 49.016C169.904 49.256 170.888 49.376 171.92 49.376C172.952 49.376 173.936 49.256 174.824 49.016V53.912H169.016V49.016ZM186.772 51.488C186.916 51.488 187.012 51.416 187.012 51.224L187.18 38.24C187.18 38.072 187.084 37.976 186.916 37.976H185.452C185.308 37.976 185.212 38.072 185.212 38.24L185.356 51.224C185.356 51.416 185.452 51.488 185.62 51.488H186.772ZM186.22 56.696C187.012 56.696 187.612 56.12 187.612 55.328C187.612 54.536 187.012 53.96 186.22 53.96C185.428 53.96 184.828 54.536 184.828 55.328C184.828 56.12 185.428 56.696 186.22 56.696Z" fill="black"/>
</svg>
